# xmcd CD database file
#
# Track frame offsets:
#	150
#	22039
#	41990
#	68538
#	96384
#	119374
#	148181
#	174122
#	195433
#	219007
#	233911
#
# Disc length: 3436 seconds
#
# Revision: 0
# Processed by: cddbd v1.5.1PL0 Copyright (c) Steve Scherf et al.
# Submitted via: CDex 1.51
#
DISCID=950d6a0b
DTITLE=Monica Dominique Quintet - Bird Woman
DYEAR=2003
DGENRE=Jazz
TTITLE0=Sail for love
TTITLE1=Rodolpho's aria
TTITLE2=Bird woman
TTITLE3=Hommage à Lars
TTITLE4=Just for funk
TTITLE5=Coq d'or
TTITLE6=Dedication
TTITLE7=Just in case
TTITLE8=Somewhere
TTITLE9=Groovin' violets
TTITLE10=Viva Ogoni
EXTD=YEAR: 2003
EXTT0=
EXTT1=
EXTT2=
EXTT3=
EXTT4=
EXTT5=
EXTT6=
EXTT7=
EXTT8=
EXTT9=
EXTT10=
PLAYORDER=
